<svg xmlns="http://www.w3.org/2000/svg" xmlns:xlink="http://www.w3.org/1999/xlink" viewBox="0 0 319 477">
  <linearGradient id="a">
    <stop offset="0" stop-color="#52ce63"/>
    <stop offset="1" stop-color="#51a256"/>
  </linearGradient>
  <linearGradient id="b" x1="55.3421%" x2="42.8169%" xlink:href="#a" y1="0%" y2="42.8629%"/>
  <linearGradient id="c" x1="55.3486%" x2="42.8081%" xlink:href="#a" y1="0%" y2="42.8629%"/>
  <linearGradient id="d" x1="50%" x2="50%" y1="0%" y2="58.8112%">
    <stop offset="0" stop-color="#8ae99c"/>
    <stop offset="1" stop-color="#52ce63"/>
  </linearGradient>
  <linearGradient id="e" x1="51.3776%" x2="44.5847%" y1="17.4726%" y2="100%">
    <stop offset="0" stop-color="#ffe56c"/>
    <stop offset="1" stop-color="#ffc63a"/>
  </linearGradient>
  <g fill="none" fill-rule="evenodd" transform="translate(-34 -24)">
    <path d="M103.9505 258.2741c44.3616-4.3608 60.0145-40.3912 65.3531-94.6994S138.3714 60.1237 123.2833 61.607c-15.0882 1.4832-63.0385 58.9051-68.3771 113.2133-5.3386 54.3081 4.6827 87.8148 49.0443 83.454z" fill="url(#b)" transform="rotate(-38 137.9619 147.099)"/>
    <path d="M275.8768 258.274c44.3616 4.3608 53.167-29.2653 47.8285-83.5735-5.3386-54.3082-52.0731-111.6106-67.1613-113.0938-15.0882-1.4832-52.5748 47.5402-47.2362 101.8483s22.2074 90.4582 66.569 94.819z" fill="url(#c)" transform="rotate(52 240.0256 189.003)"/>
    <path d="M188.37 216.8763c39.9419 0 50.9527-38.252 50.9527-97.8987C239.3227 59.3308 201.9549.8763 188.37.8763s-52.0473 58.4545-52.0473 118.1013c0 59.6467 12.1055 97.8987 52.0473 97.8987z" fill="url(#d)" transform="rotate(7 8.9767 277.7988)"/>
    <path d="M184.4735 501C267.5923 501 335 476.8549 335 367.3549S267.5923 168 184.4735 168C101.3546 168 34 257.8549 34 367.3549S101.3546 501 184.4735 501z" fill="url(#e)"/>
    <ellipse cx="260.5" cy="335" fill="#eaadcc" rx="21.5" ry="10"/>
    <ellipse cx="102.5" cy="329" fill="#eaadcc" rx="21.5" ry="10" transform="rotate(7 102.5 329)"/>
    <path d="M198.2475 331.4587c-6.4708 5.259-13.9448 7.404-22.422 6.4354-8.477-.9687-14.7605-4.4872-18.8502-10.5557" stroke="#000" stroke-linecap="round" stroke-linejoin="round" stroke-width="6"/>
    <path d="M114.9825 279.4179c5.934-.2073 11.3899 2.01 15.4142 5.7623 4.0243 3.7524 6.617 9.04 6.8242 14.9736.2072 5.934-2.0103 11.3899-5.7629 15.414-3.7527 4.0241-9.0408 6.6166-14.9748 6.8239-5.9335.2072-11.389-2.0102-15.4129-5.7629-4.0237-3.7525-6.616-9.0403-6.8232-14.9743-.2072-5.9335 2.01-11.389 5.7622-15.413 3.7524-4.024 9.0398-6.6164 14.9732-6.8236z" fill="#000"/>
    <path d="M116.1115 297.3894c-.1349-3.8632-3.3777-6.8863-7.2394-6.7515-3.864.135-6.887 3.3769-6.752 7.24s3.3765 6.8864 7.2406 6.7515c3.8616-.136 6.8857-3.3768 6.7508-7.24z" fill="#fff"/>
    <path d="M245.2534 284.8748c5.934-.2072 11.3896 2.01 15.4135 5.7623 4.0241 3.7524 6.6166 9.04 6.8238 14.9737.2072 5.9341-2.01 11.39-5.7624 15.414-3.7525 4.0241-9.0402 6.6166-14.9742 6.8238-5.9335.2072-11.3893-2.0102-15.4135-5.763-4.024-3.7524-6.6165-9.0402-6.8237-14.9741-.2072-5.9335 2.0102-11.389 5.7627-15.413 3.7526-4.024 9.0404-6.6165 14.9738-6.8237z" fill="#000"/>
    <g fill="#fff">
      <path d="M134.2227 300.2585c.3566 10.2123-7.6322 18.7784-17.8442 19.135-10.2109.3566-18.7766-7.6314-19.1333-17.8437-.3566-10.2112 7.6312-18.7772 17.842-19.1338 10.212-.3566 18.779 7.6313 19.1355 17.8425zm5.9963-.2094c-.4722-13.523-11.8176-24.1017-25.3412-23.6294-13.5226.4722-24.1011 11.8167-23.629 25.3395.4723 13.5237 11.8163 24.1029 25.339 23.6306 13.524-.4722 24.1035-11.8168 23.6312-25.3407zm124.2735 5.6664c.3566 10.2123-7.631 18.7783-17.843 19.135-10.211.3565-18.7778-7.6314-19.1345-17.8437-.3565-10.2112 7.6323-18.7773 17.8431-19.1338 10.212-.3567 18.7778 7.6313 19.1344 17.8425zm5.9963-.2094c-.4722-13.523-11.8166-24.1017-25.34-23.6295-13.5228.4722-24.1023 11.8168-23.6301 25.3396.4722 13.5236 11.8172 24.1028 25.3401 23.6306 13.5237-.4723 24.1023-11.8168 23.63-25.3407z" fill-rule="nonzero" stroke="#fff" stroke-width="3"/>
      <path d="M246.3813 302.8464c-.1349-3.8632-3.3768-6.8864-7.24-6.7515s-6.8863 3.3769-6.7514 7.24 3.3768 6.8864 7.24 6.7515 6.8863-3.3768 6.7514-7.24z"/>
    </g>
    <g stroke-linecap="round" stroke-width="11">
      <path d="m70.5 377.5 74 77m-10-68-47 50m210-59-74 77m10-68 47 50" stroke="#ecb732"/>
      <path d="m214.5 207.5-49 49m39 0-49-49" stroke="#ffc73b"/>
    </g>
  </g>
</svg>
