<svg xmlns="http://www.w3.org/2000/svg" baseProfile="full" viewBox="0 0 1952 734.93" xml:space="preserve">
  <path fill="#3D3D3D" d="m1436.62 603.304 56.39-142.599h162.82l-77.27-216.315L1675.2.00052834 1952 734.933h-204.13l-47.3-131.629h-263.95Z"/>
  <path fill="#5A0FC8" d="M1262.47 734.935 1558.79.00156593 1362.34.0025425 1159.64 474.933 1015.5.00351906H864.499L709.731 474.933 600.585 258.517l-98.773 304.302 100.284 172.116h193.331l139.857-425.91 133.346 425.91h193.84Z"/>
  <path fill="#3D3D3D" d="M186.476 482.643h121.003c36.654 0 69.293-4.091 97.917-12.273l31.293-96.408 87.459-269.446c-6.664-10.5625-14.272-20.5493-22.824-29.9591C456.419 24.852 390.719.00040626 304.222.00040626H-.00000381V734.933H186.476v-252.29Zm160.166-313.564c17.54 17.653 26.309 41.276 26.309 70.871 0 29.822-7.713 53.474-23.138 70.956-16.91 19.425-48.047 29.137-93.409 29.137h-69.928V142.598h70.442c42.277 0 72.185 8.827 89.724 26.481Z"/>
</svg>
